HIERARCHY
ROOT Hips
{
	OFFSET 0.000000 0.000000 0.000000
	CHANNELS 6 Xposition Yposition Zposition Zrotation Yrotation Xrotation 
	JOINT LHipJoint
	{
		OFFSET 0.000000 0.000000 0.000000
		CHANNELS 3 Zrotation Yrotation Xrotation
		JOINT LeftUpLeg
		{
			OFFSET 1.363060 -1.794630 0.839290
			CHANNELS 3 Zrotation Yrotation Xrotation
			JOINT LeftLeg
			{
				OFFSET 2.448110 -6.726130 0.000000
				CHANNELS 3 Zrotation Yrotation Xrotation
				JOINT LeftFoot
				{
					OFFSET 2.562200 -7.039590 0.000000
					CHANNELS 3 Zrotation Yrotation Xrotation
					JOINT LeftToeBase
					{
						OFFSET 0.157640 -0.433110 2.322550
						CHANNELS 3 Zrotation Yrotation Xrotation
						End Site
						{
							OFFSET 0.000000 0.000000 0.000000
						}
					}
				}
			}
		}
	}
	JOINT RHipJoint
	{
		OFFSET 0.000000 0.000000 0.000000
		CHANNELS 3 Zrotation Yrotation Xrotation
		JOINT RightUpLeg
		{
			OFFSET -1.305520 -1.794630 0.839290
			CHANNELS 3 Zrotation Yrotation Xrotation
			JOINT RightLeg
			{
				OFFSET -2.542530 -6.985550 0.000000
				CHANNELS 3 Zrotation Yrotation Xrotation
				JOINT RightFoot
				{
					OFFSET -2.568260 -7.056230 0.000000
					CHANNELS 3 Zrotation Yrotation Xrotation
					JOINT RightToeBase
					{
						OFFSET -0.164730 -0.452590 2.363150
						CHANNELS 3 Zrotation Yrotation Xrotation
						End Site
						{
							OFFSET 0.000000 0.000000 0.000000
						}
					}
				}
			}
		}
	}
	JOINT LowerBack
	{
		OFFSET 0.000000 0.000000 0.000000
		CHANNELS 3 Zrotation Yrotation Xrotation
		JOINT Spine
		{
			OFFSET 0.028270 2.035590 -0.193380
			CHANNELS 3 Zrotation Yrotation Xrotation
			JOINT Spine1
			{
				OFFSET 0.056720 2.048850 -0.042750
				CHANNELS 3 Zrotation Yrotation Xrotation
				JOINT Neck
				{
					OFFSET 0.000000 0.000000 0.000000
					CHANNELS 3 Zrotation Yrotation Xrotation
					JOINT Neck1
					{
						OFFSET -0.054170 1.746240 0.172020
						CHANNELS 3 Zrotation Yrotation Xrotation
						JOINT Head
						{
							OFFSET 0.104070 1.761360 -0.123970
							CHANNELS 3 Zrotation Yrotation Xrotation
							End Site
							{
								OFFSET 0.000000 0.000000 0.000000
							}
						}
					}
				}
				JOINT LeftShoulder
				{
					OFFSET 0.000000 0.000000 0.000000
					CHANNELS 3 Zrotation Yrotation Xrotation
					JOINT LeftArm
					{
						OFFSET 3.362410 1.200890 -0.311210
						CHANNELS 3 Zrotation Yrotation Xrotation
						JOINT LeftForeArm
						{
							OFFSET 4.983000 -0.000000 -0.000000
							CHANNELS 3 Zrotation Yrotation Xrotation
							JOINT LeftHand
							{
								OFFSET 3.483560 -0.000000 -0.000000
								CHANNELS 3 Zrotation Yrotation Xrotation
								JOINT LeftFingerBase
								{
									OFFSET 0.000000 0.000000 0.000000
									CHANNELS 3 Zrotation Yrotation Xrotation
									JOINT LeftHandIndex1
									{
										OFFSET 0.715260 -0.000000 -0.000000
										CHANNELS 3 Zrotation Yrotation Xrotation
										End Site
										{
											OFFSET 0.000000 0.000000 0.000000
										}
									}
								}
								JOINT LThumb
								{
									OFFSET 0.000000 0.000000 0.000000
									CHANNELS 3 Zrotation Yrotation Xrotation
									End Site
									{
										OFFSET 0.000000 0.000000 0.000000
									}
								}
							}
						}
					}
				}
				JOINT RightShoulder
				{
					OFFSET 0.000000 0.000000 0.000000
					CHANNELS 3 Zrotation Yrotation Xrotation
					JOINT RightArm
					{
						OFFSET -3.136600 1.374050 -0.404650
						CHANNELS 3 Zrotation Yrotation Xrotation
						JOINT RightForeArm
						{
							OFFSET -5.241900 -0.000000 -0.000000
							CHANNELS 3 Zrotation Yrotation Xrotation
							JOINT RightHand
							{
								OFFSET -3.444170 -0.000000 -0.000000
								CHANNELS 3 Zrotation Yrotation Xrotation
								JOINT RightFingerBase
								{
									OFFSET 0.000000 0.000000 0.000000
									CHANNELS 3 Zrotation Yrotation Xrotation
									JOINT RightHandIndex1
									{
										OFFSET -0.622530 -0.000000 -0.000000
										CHANNELS 3 Zrotation Yrotation Xrotation
										End Site
										{
											OFFSET 0.000000 0.000000 0.000000
										}
									}
								}
								JOINT RThumb
								{
									OFFSET 0.000000 0.000000 0.000000
									CHANNELS 3 Zrotation Yrotation Xrotation
									End Site
									{
										OFFSET 0.000000 0.000000 0.000000
									}
								}
							}
						}
					}
				}
			}
		}
	}
}
MOTION
Frames: 6
Frame Time: 0.008333
0.852164 18.230728 -1.408621 -0.169585 -7.141116 5.169755 -2.850631 5.779099 5.742101 -15.801702 -9.939970 -5.780172 -0.692421 2.485243 11.493891 -3.357848 14.846131 -8.884752 0.019500 -0.902200 -2.479700 -3.489031 -6.737696 3.832667 22.477878 24.577193 -1.462833 -0.986202 -3.191673 15.311040 3.772696 -14.725932 -5.968221 -0.023100 0.980300 -2.694600 3.691557 1.208832 -4.200862 -9.336255 0.503627 10.644725 3.733005 0.890667 -9.738680 -11.888974 -5.900366 -14.192537 14.614467 -9.292377 17.530243 4.675800 -3.872700 6.185600 -6.460078 -0.908008 -0.574143 -83.575446 1.891528 2.944220 11.585734 -17.264812 -1.619700 -0.514723 -1.020178 6.321750 21.034115 22.762653 9.018800 -7.125000 0.000000 0.000000 -8.423400 55.179700 -2.116400 11.054262 0.183312 -1.839430 78.071697 -2.474916 19.921396 -13.908150 16.484197 -2.340700 1.367919 0.050210 21.434874 -26.242220 0.194689 0.212700 7.125000 0.000000 0.000000 -0.738500 -30.439900 -0.262600 
0.857735 18.229864 -1.409774 -0.081223 -7.141217 5.105160 -2.863689 5.780400 5.750640 -15.910888 -9.883016 -5.741855 -0.688487 2.488666 11.517010 -3.336628 14.770270 -8.870604 0.020200 -0.917500 -2.522000 -3.501285 -6.736676 3.834585 22.376693 24.486175 -1.542238 -1.004880 -3.238514 15.441416 3.760960 -14.681879 -5.898246 -0.025900 1.039200 -2.856700 3.704695 1.230677 -4.106326 -9.473657 0.547298 10.726600 3.759324 0.911458 -9.816885 -11.784340 -5.921442 -14.272955 14.447255 -9.303950 17.575503 4.626900 -3.885000 6.197700 -6.440841 -0.902166 -0.574237 -83.541304 1.807826 2.984678 11.540370 -17.200856 -1.604484 -0.514449 -1.031039 6.325058 20.976494 23.134900 9.125300 -7.125000 0.000000 0.000000 -8.643000 55.560500 -2.252400 11.042023 0.172905 -1.845577 78.081546 -2.510347 19.957184 -13.955723 16.577283 -2.371848 1.311059 0.083437 21.347677 -25.465254 0.205279 0.202700 7.125000 0.000000 0.000000 -0.072400 -30.431400 -0.025700 
0.860328 18.227655 -1.413231 -0.045814 -7.142768 5.066758 -2.861163 5.782246 5.746323 -15.961674 -9.752122 -5.734328 -0.690659 2.466148 11.440820 -3.387621 14.896679 -8.507806 0.058400 -1.559200 -4.289000 -3.499843 -6.729557 3.827322 22.336996 24.437609 -1.618796 -1.025814 -3.292706 15.596824 3.742300 -14.625004 -5.903974 -0.027100 1.061900 -2.919100 3.637059 1.217699 -3.933329 -9.431861 0.540808 10.640978 3.786204 0.917231 -9.917025 -11.757394 -5.901467 -14.254920 14.321505 -9.265000 17.625641 4.602400 -3.874000 6.191400 -6.450148 -0.886402 -0.567905 -83.529264 1.873646 3.085792 11.537356 -17.197201 -1.604206 -0.509094 -1.028864 6.223838 20.900184 22.968041 9.029700 -7.125000 0.000000 0.000000 -8.655300 55.370200 -2.215500 11.025009 0.154847 -1.842402 78.047283 -2.604001 20.057481 -14.015750 16.697508 -2.414351 1.283223 0.038149 21.307404 -25.403273 1.015097 -0.228700 7.125000 0.000000 0.000000 -0.015500 -29.468800 -0.005900 
0.863113 18.226502 -1.414672 0.031625 -7.110855 5.005516 -2.864157 5.785648 5.760779 -16.053919 -9.624641 -5.727517 -0.689481 2.449937 11.404974 -3.397533 14.891234 -8.255671 0.092800 -1.964900 -5.408600 -3.501888 -6.732124 3.842179 22.250679 24.399477 -1.669469 -1.044652 -3.342050 15.742770 3.717479 -14.555144 -5.998176 -0.027800 1.075600 -2.956800 3.561609 1.200409 -3.894911 -9.465245 0.529680 10.806479 3.842652 0.914068 -9.969748 -11.625672 -5.881979 -14.329422 14.125791 -9.203504 17.552067 4.553700 -3.855100 6.172300 -6.444410 -0.884047 -0.577796 -83.537083 1.810797 3.064129 11.498407 -17.138431 -1.592133 -0.520377 -1.009659 6.408833 21.183492 22.468396 8.981900 -7.125000 0.000000 0.000000 -8.140900 54.898300 -1.988900 10.999561 0.161142 -1.849333 78.012963 -2.538719 20.307290 -14.046589 16.753516 -2.427689 1.266457 0.109236 20.891540 -24.946402 0.445079 0.079500 7.125000 0.000000 0.000000 0.373900 -30.160500 0.135400 
0.866282 18.224389 -1.415632 0.119722 -7.094875 4.951006 -2.879903 5.787340 5.770638 -16.147619 -9.635703 -5.699867 -0.684746 2.454756 11.430019 -3.406122 14.917118 -8.211997 0.096300 -2.001600 -5.510000 -3.515693 -6.735738 3.853428 22.163993 24.420204 -1.702862 -1.062696 -3.387396 15.879565 3.700624 -14.512969 -6.104629 -0.027300 1.066000 -2.930400 3.571897 1.201427 -3.873921 -9.629096 0.541134 10.947760 3.879177 0.915290 -9.991238 -11.558343 -5.833346 -14.286535 14.125301 -9.130015 17.392691 4.558800 -3.823300 6.128400 -6.416060 -0.887218 -0.587018 -83.520933 1.738173 3.044186 11.424507 -17.026559 -1.568272 -0.543268 -0.988845 6.772120 21.706318 22.091238 9.083400 -7.125000 0.000000 0.000000 -7.427600 54.599300 -1.758900 10.991944 0.166418 -1.862815 78.047555 -2.512196 20.429186 -14.112598 16.854834 -2.448981 1.252855 0.210251 20.697938 -24.452550 -0.578447 0.606400 7.125000 0.000000 0.000000 0.815800 -31.385300 0.271600 
0.868107 18.222277 -1.420626 0.124554 -7.125529 4.927779 -2.878772 5.785546 5.773676 -16.162361 -9.562601 -5.792066 -0.672317 2.489190 11.528734 -3.398045 14.876087 -8.149596 0.092900 -1.965500 -5.410300 -3.518026 -6.733729 3.862025 22.158499 24.522520 -1.754967 -1.082376 -3.432355 16.020685 3.696063 -14.508925 -6.176292 -0.025500 1.031700 -2.835900 3.575154 1.230050 -3.827654 -9.626693 0.590927 11.052954 3.863899 0.937501 -10.039463 -11.568090 -5.802753 -14.319689 14.157463 -9.085089 17.342483 4.573000 -3.800200 6.117900 -6.408714 -0.884382 -0.592117 -83.475506 1.635903 3.114917 11.350761 -16.914561 -1.545551 -0.551949 -0.977019 6.922552 21.878188 21.845366 9.069300 -7.125000 0.000000 0.000000 -7.147000 54.369100 -1.651800 10.972498 0.160662 -1.875512 78.057578 -2.552123 20.623173 -14.205032 17.006929 -2.488609 1.238108 0.279387 20.316205 -24.124424 -1.092464 0.862500 7.125000 0.000000 0.000000 1.117900 -32.005200 0.355600 
